<svg id="visual" viewBox="0 0 960 540" width="960" height="540" xmlns="http://www.w3.org/2000/svg" xmlns:xlink="http://www.w3.org/1999/xlink" version="1.1"><path d="M0 125L17.8 117.8C35.7 110.7 71.3 96.3 106.8 97.3C142.3 98.3 177.7 114.7 213.2 128.2C248.7 141.7 284.3 152.3 320 145C355.7 137.7 391.3 112.3 426.8 98.8C462.3 85.3 497.7 83.7 533.2 82C568.7 80.3 604.3 78.7 640 82.3C675.7 86 711.3 95 746.8 95C782.3 95 817.7 86 853.2 88.7C888.7 91.3 924.3 105.7 942.2 112.8L960 120L960 0L942.2 0C924.3 0 888.7 0 853.2 0C817.7 0 782.3 0 746.8 0C711.3 0 675.7 0 640 0C604.3 0 568.7 0 533.2 0C497.7 0 462.3 0 426.8 0C391.3 0 355.7 0 320 0C284.3 0 248.7 0 213.2 0C177.7 0 142.3 0 106.8 0C71.3 0 35.7 0 17.8 0L0 0Z" fill="#fbfdff"></path><path d="M0 185L17.8 175C35.7 165 71.3 145 106.8 141.3C142.3 137.7 177.7 150.3 213.2 167.5C248.7 184.7 284.3 206.3 320 204.5C355.7 202.7 391.3 177.3 426.8 161.2C462.3 145 497.7 138 533.2 130.8C568.7 123.7 604.3 116.3 640 116.3C675.7 116.3 711.3 123.7 746.8 127.3C782.3 131 817.7 131 853.2 134.5C888.7 138 924.3 145 942.2 148.5L960 152L960 118L942.2 110.8C924.3 103.7 888.7 89.3 853.2 86.7C817.7 84 782.3 93 746.8 93C711.3 93 675.7 84 640 80.3C604.3 76.7 568.7 78.3 533.2 80C497.7 81.7 462.3 83.3 426.8 96.8C391.3 110.3 355.7 135.7 320 143C284.3 150.3 248.7 139.7 213.2 126.2C177.7 112.7 142.3 96.3 106.8 95.3C71.3 94.3 35.7 108.7 17.8 115.8L0 123Z" fill="#dbecff"></path><path d="M0 212L17.8 201.2C35.7 190.3 71.3 168.7 106.8 163.2C142.3 157.7 177.7 168.3 213.2 185.3C248.7 202.3 284.3 225.7 320 223.8C355.7 222 391.3 195 426.8 178C462.3 161 497.7 154 533.2 148.7C568.7 143.3 604.3 139.7 640 139.7C675.7 139.7 711.3 143.3 746.8 147.8C782.3 152.3 817.7 157.7 853.2 161.2C888.7 164.7 924.3 166.3 942.2 167.2L960 168L960 150L942.2 146.5C924.3 143 888.7 136 853.2 132.5C817.7 129 782.3 129 746.8 125.3C711.3 121.7 675.7 114.3 640 114.3C604.3 114.3 568.7 121.7 533.2 128.8C497.7 136 462.3 143 426.8 159.2C391.3 175.3 355.7 200.7 320 202.5C284.3 204.3 248.7 182.7 213.2 165.5C177.7 148.3 142.3 135.7 106.8 139.3C71.3 143 35.7 163 17.8 173L0 183Z" fill="#bbdbff"></path><path d="M0 266L17.8 253.3C35.7 240.7 71.3 215.3 106.8 210.8C142.3 206.3 177.7 222.7 213.2 237C248.7 251.3 284.3 263.7 320 257.3C355.7 251 391.3 226 426.8 210.8C462.3 195.7 497.7 190.3 533.2 185.8C568.7 181.3 604.3 177.7 640 175.8C675.7 174 711.3 174 746.8 179.3C782.3 184.7 817.7 195.3 853.2 202.5C888.7 209.7 924.3 213.3 942.2 215.2L960 217L960 166L942.2 165.2C924.3 164.3 888.7 162.7 853.2 159.2C817.7 155.7 782.3 150.3 746.8 145.8C711.3 141.3 675.7 137.7 640 137.7C604.3 137.7 568.7 141.3 533.2 146.7C497.7 152 462.3 159 426.8 176C391.3 193 355.7 220 320 221.8C284.3 223.7 248.7 200.3 213.2 183.3C177.7 166.3 142.3 155.7 106.8 161.2C71.3 166.7 35.7 188.3 17.8 199.2L0 210Z" fill="#9dc9ff"></path><path d="M0 401L17.8 385.7C35.7 370.3 71.3 339.7 106.8 333.3C142.3 327 177.7 345 213.2 353C248.7 361 284.3 359 320 354.5C355.7 350 391.3 343 426.8 340.3C462.3 337.7 497.7 339.3 533.2 343.8C568.7 348.3 604.3 355.7 640 355.7C675.7 355.7 711.3 348.3 746.8 347.3C782.3 346.3 817.7 351.7 853.2 356.2C888.7 360.7 924.3 364.3 942.2 366.2L960 368L960 215L942.2 213.2C924.3 211.3 888.7 207.7 853.2 200.5C817.7 193.3 782.3 182.7 746.8 177.3C711.3 172 675.7 172 640 173.8C604.3 175.7 568.7 179.3 533.2 183.8C497.7 188.3 462.3 193.7 426.8 208.8C391.3 224 355.7 249 320 255.3C284.3 261.7 248.7 249.3 213.2 235C177.7 220.7 142.3 204.3 106.8 208.8C71.3 213.3 35.7 238.7 17.8 251.3L0 264Z" fill="#7eb7ff"></path><path d="M0 438L17.8 428.2C35.7 418.3 71.3 398.7 106.8 394.2C142.3 389.7 177.7 400.3 213.2 407.5C248.7 414.7 284.3 418.3 320 411.2C355.7 404 391.3 386 426.8 378.8C462.3 371.7 497.7 375.3 533.2 380.8C568.7 386.3 604.3 393.7 640 397.3C675.7 401 711.3 401 746.8 401C782.3 401 817.7 401 853.2 403.7C888.7 406.3 924.3 411.7 942.2 414.3L960 417L960 366L942.2 364.2C924.3 362.3 888.7 358.7 853.2 354.2C817.7 349.7 782.3 344.3 746.8 345.3C711.3 346.3 675.7 353.7 640 353.7C604.3 353.7 568.7 346.3 533.2 341.8C497.7 337.3 462.3 335.7 426.8 338.3C391.3 341 355.7 348 320 352.5C284.3 357 248.7 359 213.2 351C177.7 343 142.3 325 106.8 331.3C71.3 337.7 35.7 368.3 17.8 383.7L0 399Z" fill="#5fa4ff"></path><path d="M0 465L17.8 457C35.7 449 71.3 433 106.8 429.5C142.3 426 177.7 435 213.2 442.2C248.7 449.3 284.3 454.7 320 448.3C355.7 442 391.3 424 426.8 414.2C462.3 404.3 497.7 402.7 533.2 405.3C568.7 408 604.3 415 640 421.2C675.7 427.3 711.3 432.7 746.8 436.3C782.3 440 817.7 442 853.2 442C888.7 442 924.3 440 942.2 439L960 438L960 415L942.2 412.3C924.3 409.7 888.7 404.3 853.2 401.7C817.7 399 782.3 399 746.8 399C711.3 399 675.7 399 640 395.3C604.3 391.7 568.7 384.3 533.2 378.8C497.7 373.3 462.3 369.7 426.8 376.8C391.3 384 355.7 402 320 409.2C284.3 416.3 248.7 412.7 213.2 405.5C177.7 398.3 142.3 387.7 106.8 392.2C71.3 396.7 35.7 416.3 17.8 426.2L0 436Z" fill="#4091ff"></path><path d="M0 519L17.8 516.3C35.7 513.7 71.3 508.3 106.8 507.5C142.3 506.7 177.7 510.3 213.2 509.5C248.7 508.7 284.3 503.3 320 501.5C355.7 499.7 391.3 501.3 426.8 503.2C462.3 505 497.7 507 533.2 509.7C568.7 512.3 604.3 515.7 640 513.8C675.7 512 711.3 505 746.8 505C782.3 505 817.7 512 853.2 513.8C888.7 515.7 924.3 512.3 942.2 510.7L960 509L960 436L942.2 437C924.3 438 888.7 440 853.2 440C817.7 440 782.3 438 746.8 434.3C711.3 430.7 675.7 425.3 640 419.2C604.3 413 568.7 406 533.2 403.3C497.7 400.7 462.3 402.3 426.8 412.2C391.3 422 355.7 440 320 446.3C284.3 452.7 248.7 447.3 213.2 440.2C177.7 433 142.3 424 106.8 427.5C71.3 431 35.7 447 17.8 455L0 463Z" fill="#207cff"></path><path d="M0 541L17.8 541C35.7 541 71.3 541 106.8 541C142.3 541 177.7 541 213.2 541C248.7 541 284.3 541 320 541C355.7 541 391.3 541 426.8 541C462.3 541 497.7 541 533.2 541C568.7 541 604.3 541 640 541C675.7 541 711.3 541 746.8 541C782.3 541 817.7 541 853.2 541C888.7 541 924.3 541 942.2 541L960 541L960 507L942.2 508.7C924.3 510.3 888.7 513.7 853.2 511.8C817.7 510 782.3 503 746.8 503C711.3 503 675.7 510 640 511.8C604.3 513.7 568.7 510.3 533.2 507.7C497.7 505 462.3 503 426.8 501.2C391.3 499.3 355.7 497.7 320 499.5C284.3 501.3 248.7 506.7 213.2 507.5C177.7 508.3 142.3 504.7 106.8 505.5C71.3 506.3 35.7 511.7 17.8 514.3L0 517Z" fill="#0066ff"></path></svg>